<svg xmlns="http://www.w3.org/2000/svg" viewBox="0 0 1388 189" width="1388" height="189" role="img"><metadata id="stepflow-source" data-stepflow="1">v1.pdNPb5swGAbwr4Kes7VhKEnrWzXtsNt22WXKgZg3AZUY6j9JUMR3nzAOc7uo2tpTHHDe3-vXTy44QnAGC4G22dcWDOoAgUdlTqQbtU92ujskQ-d0UnXSgOEZ4tcFDQRMOm1_e3cFwT9xhh1EytBCWO2Iwc2LccNQRpWmwhUEnCENBjv0NL2ty57AcPY1Bog8YzhB8CJlqCHWqXcueGrU9GvdOVVRBYa23FILgR-OjG06BQbjthCQdWkxjix4Zd_c5LIi92A6e6vZ43n-EqzpXO599Sv4-P3bYmmyuqEjRR4dtr6_v8WCr_7piCRtxH0N9Wbw2ZEeIu1I8qa1Xj14KwtWPlsPryw5tI2q_IVcvZ8kbacTYztNC1t1MpG1U08mstv2cNPmaZrNB-UeX6_nc2Yv7Ub6sfqP6Zp681m2pasoaubL9cHcRunDGLWgqW-H203w--x9gZoTv5inxtaJ6ZyWNB1-w0B_wtzyaV-U6iVwpp6Kh_-dnb60tPPrYZp7p5SfM0I3xlJv_CKF4GM05CwIIcdRwj5CZDGRB2KJ7hKs_ySuI1RUajI2uZ9KxGwes3eBDRleEvVOVHbK0tm-Ju9isghkiG6UoI8MsxjHcTP-Bg</metadata><style>
.bg{fill:#fbfbfd}.nf{fill:#ffffff}.ns{stroke:#334155}
.lbl{fill:#1a1f2b}.sub{fill:#6b7280}.edg{stroke:#64748b}.arw{fill:#64748b}
.elb{fill:#1a1f2b}.ebg{fill:#fbfbfd}.wm{fill:#9aa3b0}
.pkt{fill:#64748b;stroke:#fbfbfd}.frm{stroke:#d8dce3}.frm-name{fill:#6b7280}.ico{color:#1a1f2b}
@media(prefers-color-scheme:dark){
.bg{fill:#0d1117}.nf{fill:#161b22}.ns{stroke:#cbd5e1}
.lbl{fill:#e6edf3}.sub{fill:#8b949e}.edg{stroke:#94a3b8}.arw{fill:#94a3b8}
.elb{fill:#e6edf3}.ebg{fill:#0d1117}.wm{fill:#6e7681}
.pkt{fill:#94a3b8;stroke:#0d1117}.frm{stroke:#2d333b}.frm-name{fill:#8b949e}.ico{color:#e6edf3}}
text{font-family:ui-sans-serif,-apple-system,BlinkMacSystemFont,"Segoe UI",Roboto,"Helvetica Neue",Arial,sans-serif}
</style><defs><symbol id="ic-apps-claude" viewBox="0 0 64 64"><rect width="64" height="64" rx="12" fill="#fff"/><path transform="translate(13 13) scale(1.5833)" fill="#D97757" d="m4.7144 15.9555 4.7174-2.6471.079-.2307-.079-.1275h-.2307l-.7893-.0486-2.6956-.0729-2.3375-.0971-2.2646-.1214-.5707-.1215-.5343-.7042.0546-.3522.4797-.3218.686.0608 1.5179.1032 2.2767.1578 1.6514.0972 2.4468.255h.3886l.0546-.1579-.1336-.0971-.1032-.0972L6.973 9.8356l-2.55-1.6879-1.3356-.9714-.7225-.4918-.3643-.4614-.1578-1.0078.6557-.7225.8803.0607.2246.0607.8925.686 1.9064 1.4754 2.4893 1.8336.3643.3035.1457-.1032.0182-.0728-.164-.2733-1.3539-2.4467-1.445-2.4893-.6435-1.032-.17-.6194c-.0607-.255-.1032-.4674-.1032-.7285L6.287.1335 6.6997 0l.9957.1336.419.3642.6192 1.4147 1.0018 2.2282 1.5543 3.0296.4553.8985.2429.8318.091.255h.1579v-.1457l.1275-1.706.2368-2.0947.2307-2.6957.0789-.7589.3764-.9107.7468-.4918.5828.2793.4797.686-.0668.4433-.2853 1.8517-.5586 2.9021-.3643 1.9429h.2125l.2429-.2429.9835-1.3053 1.6514-2.0643.7286-.8196.85-.9046.5464-.4311h1.0321l.759 1.1293-.34 1.1657-1.0625 1.3478-.8804 1.1414-1.2628 1.7-.7893 1.36.0729.1093.1882-.0183 2.8535-.607 1.5421-.2794 1.8396-.3157.8318.3886.091.3946-.3278.8075-1.967.4857-2.3072.4614-3.4364.8136-.0425.0304.0486.0607 1.5482.1457.6618.0364h1.621l3.0175.2247.7892.522.4736.6376-.079.4857-1.2142.6193-1.6393-.3886-3.825-.9107-1.3113-.3279h-.1822v.1093l1.0929 1.0686 2.0035 1.8092 2.5075 2.3314.1275.5768-.3218.4554-.34-.0486-2.2039-1.6575-.85-.7468-1.9246-1.621h-.1275v.17l.4432.6496 2.3436 3.5214.1214 1.0807-.17.3521-.6071.2125-.6679-.1214-1.3721-1.9246L14.38 17.959l-1.1414-1.9428-.1397.079-.674 7.2552-.3156.3703-.7286.2793-.6071-.4614-.3218-.7468.3218-1.4753.3886-1.9246.3157-1.53.2853-1.9004.17-.6314-.0121-.0425-.1397.0182-1.4328 1.9672-2.1796 2.9446-1.7243 1.8456-.4128.164-.7164-.3704.0667-.6618.4008-.5889 2.386-3.0357 1.4389-1.882.929-1.0868-.0062-.1579h-.0546l-6.3385 4.1164-1.1293.1457-.4857-.4554.0608-.7467.2307-.2429 1.9064-1.3114Z"/></symbol><marker id="ah-l1" viewBox="0 0 8 8" refX="8" refY="4" markerWidth="9" markerHeight="9" orient="auto"><path d="M0,0 L8,4 L0,8 z" class="arw"/></marker><marker id="ah-l2" viewBox="0 0 8 8" refX="8" refY="4" markerWidth="9" markerHeight="9" orient="auto"><path d="M0,0 L8,4 L0,8 z" class="arw"/></marker><marker id="ah-l3" viewBox="0 0 8 8" refX="8" refY="4" markerWidth="9" markerHeight="9" orient="auto"><path d="M0,0 L8,4 L0,8 z" class="arw"/></marker><marker id="ah-l4" viewBox="0 0 8 8" refX="8" refY="4" markerWidth="9" markerHeight="9" orient="auto"><path d="M0,0 L8,4 L0,8 z" class="arw"/></marker><marker id="ah-l5" viewBox="0 0 8 8" refX="8" refY="4" markerWidth="9" markerHeight="9" orient="auto"><path d="M0,0 L8,4 L0,8 z" class="arw"/></marker></defs><rect class="bg" width="1388" height="189"/><g transform="translate(28,28)"><path class="edg" d="M150,67 C197,67 197,66.5 244,66.5 L253,66.5" fill="none" stroke-width="1" marker-end="url(#ah-l1)"/><path class="edg" d="M413,66.5 C460,66.5 460,67 507,67 L516,67" fill="none" stroke-width="1" marker-end="url(#ah-l2)"/><path class="edg" d="M666,67 C713,67 713,67 760,67 L769,67" fill="none" stroke-width="1" marker-end="url(#ah-l3)"/><path class="edg" d="M899,67 C946,67 946,67 993,67 L1002,67" fill="none" stroke-width="1" marker-end="url(#ah-l4)"/><path class="edg" d="M1079,67 C1126,67 1126,67 1173,67 L1182,67" fill="none" stroke-width="1" marker-end="url(#ah-l5)"/><g transform="translate(0,32)"><rect x="0" y="0" width="150" height="70" rx="10" class="nf ns" stroke-width="1"/><text class="lbl" x="75.0" y="31.0" text-anchor="middle" font-size="13" font-weight="600" textLength="57.1" lengthAdjust="spacingAndGlyphs"><tspan font-weight="600">Question</tspan></text><text class="sub" x="75.0" y="47.3" text-anchor="middle" font-size="10.5" font-weight="400" textLength="21.3" lengthAdjust="spacingAndGlyphs">chat</text></g><g transform="translate(253,0)"><path d="M22,0 H138 L160,66.5 L138,133 H22 L0,66.5 Z" class="nf ns" stroke-width="1"/><text class="lbl" x="80.0" y="62.5" text-anchor="middle" font-size="13" font-weight="600" textLength="23" lengthAdjust="spacingAndGlyphs"><tspan font-weight="600">API</tspan></text><text class="sub" x="80.0" y="78.8" text-anchor="middle" font-size="10.5" font-weight="400" textLength="37.6" lengthAdjust="spacingAndGlyphs">retrieve</text></g><g transform="translate(516,32)"><rect x="0" y="0" width="150" height="70" class="nf ns" stroke-width="1"/><text class="lbl" x="75.0" y="31.0" text-anchor="middle" font-size="13" font-weight="600" textLength="45.2" lengthAdjust="spacingAndGlyphs"><tspan font-weight="600">Embed</tspan></text><text class="sub" x="75.0" y="47.3" text-anchor="middle" font-size="10.5" font-weight="400" textLength="28.2" lengthAdjust="spacingAndGlyphs">query</text></g><g transform="translate(769,22)"><path d="M0,14 A65,14 0 0 1 130,14 V76 A65,14 0 0 1 0,76 Z" class="nf ns" stroke-width="1"/><path d="M0,14 A65,14 0 0 0 130,14" class="ns" fill="none" stroke-width="1"/><text class="lbl" x="65.0" y="41.0" text-anchor="middle" font-size="13" font-weight="600" textLength="76.9" lengthAdjust="spacingAndGlyphs"><tspan font-weight="600">Vector store</tspan></text><text class="sub" x="65.0" y="57.3" text-anchor="middle" font-size="10.5" font-weight="400" textLength="57.1" lengthAdjust="spacingAndGlyphs">doc chunks</text></g><g transform="translate(1002,31)"><use href="#ic-apps-claude" width="77" height="72"/><text class="lbl" x="38.5" y="89.0" text-anchor="middle" font-size="13" font-weight="600" textLength="45.2" lengthAdjust="spacingAndGlyphs">Claude</text></g><g transform="translate(1182,32)"><rect x="0" y="0" width="150" height="70" rx="10" class="nf ns" stroke-width="1"/><text class="lbl" x="75.0" y="31.0" text-anchor="middle" font-size="13" font-weight="600" textLength="47.5" lengthAdjust="spacingAndGlyphs"><tspan font-weight="600">Answer</tspan></text><text class="sub" x="75.0" y="47.3" text-anchor="middle" font-size="10.5" font-weight="400" textLength="62.7" lengthAdjust="spacingAndGlyphs">with sources</text></g><circle class="pkt" r="4.5" stroke-width="1.5" opacity="0"><animate attributeName="opacity" dur="5.5s" repeatCount="indefinite" calcMode="discrete" keyTimes="0.0000;0.2000" values="1;0"/><animateMotion dur="5.5s" repeatCount="indefinite" calcMode="linear" keyTimes="0.0000;0.2000;1.0000" keyPoints="0;1;1" path="M150,67 C197,67 197,66.5 244,66.5 L253,66.5"/></circle><circle class="pkt" r="4.5" stroke-width="1.5" opacity="0"><animate attributeName="opacity" dur="5.5s" repeatCount="indefinite" calcMode="discrete" keyTimes="0.0000;0.2000;0.4000" values="0;1;0"/><animateMotion dur="5.5s" repeatCount="indefinite" calcMode="linear" keyTimes="0.0000;0.2000;0.4000;1.0000" keyPoints="0;0;1;1" path="M413,66.5 C460,66.5 460,67 507,67 L516,67"/></circle><circle class="pkt" r="4.5" stroke-width="1.5" opacity="0"><animate attributeName="opacity" dur="5.5s" repeatCount="indefinite" calcMode="discrete" keyTimes="0.0000;0.4000;0.6000" values="0;1;0"/><animateMotion dur="5.5s" repeatCount="indefinite" calcMode="linear" keyTimes="0.0000;0.4000;0.6000;1.0000" keyPoints="0;0;1;1" path="M666,67 C713,67 713,67 760,67 L769,67"/></circle><circle class="pkt" r="4.5" stroke-width="1.5" opacity="0"><animate attributeName="opacity" dur="5.5s" repeatCount="indefinite" calcMode="discrete" keyTimes="0.0000;0.6000;0.8000" values="0;1;0"/><animateMotion dur="5.5s" repeatCount="indefinite" calcMode="linear" keyTimes="0.0000;0.6000;0.8000;1.0000" keyPoints="0;0;1;1" path="M899,67 C946,67 946,67 993,67 L1002,67"/></circle><circle class="pkt" r="4.5" stroke-width="1.5" opacity="0"><animate attributeName="opacity" dur="5.5s" repeatCount="indefinite" calcMode="discrete" keyTimes="0.0000;0.8000;1.0000" values="0;1;0"/><animateMotion dur="5.5s" repeatCount="indefinite" calcMode="linear" keyTimes="0.0000;0.8000;1.0000" keyPoints="0;0;1" path="M1079,67 C1126,67 1126,67 1173,67 L1182,67"/></circle><rect class="ebg" x="191.5" y="57.7" width="19.9" height="18.0" rx="3"/><text class="elb" x="201.4" y="66.7" text-anchor="middle" dominant-baseline="central" font-size="11" font-weight="500" textLength="9.9" lengthAdjust="spacingAndGlyphs"><tspan font-weight="500">1.</tspan></text><rect class="ebg" x="454.5" y="57.8" width="19.9" height="18.0" rx="3"/><text class="elb" x="464.4" y="66.8" text-anchor="middle" dominant-baseline="central" font-size="11" font-weight="500" textLength="9.9" lengthAdjust="spacingAndGlyphs"><tspan font-weight="500">2.</tspan></text><rect class="ebg" x="681.2" y="58.0" width="72.5" height="18.0" rx="3"/><text class="elb" x="717.4" y="67.0" text-anchor="middle" dominant-baseline="central" font-size="11" font-weight="500" textLength="62.5" lengthAdjust="spacingAndGlyphs"><tspan font-weight="500">3. nearest 8</tspan></text><rect class="ebg" x="919.8" y="58.0" width="61.3" height="18.0" rx="3"/><text class="elb" x="950.4" y="67.0" text-anchor="middle" dominant-baseline="central" font-size="11" font-weight="500" textLength="51.3" lengthAdjust="spacingAndGlyphs"><tspan font-weight="500">4. context</tspan></text><rect class="ebg" x="1120.5" y="58.0" width="19.9" height="18.0" rx="3"/><text class="elb" x="1130.4" y="67.0" text-anchor="middle" dominant-baseline="central" font-size="11" font-weight="500" textLength="9.9" lengthAdjust="spacingAndGlyphs"><tspan font-weight="500">5.</tspan></text></g><text class="wm" x="1376" y="179" font-size="9.5" text-anchor="end">Made with getstepflow.com</text></svg>